# xmcd
#
# Track frame offsets:
#	150
#	12407
#	25502
#	37102
#	49270
#	60537
#	72170
#	85665
#	97960
#	108662
#	120792
#	132832
#	146360
#	157297
#	170315
#	183630
#	195535
#	205912
#	217684
#	228647
#
# Disc length: 3224 seconds
#
# Revision: 3
# Processed by: cddbd v1.5.2PL0 Copyright (c) Steve Scherf et al.
# Submitted via: audiograbber 1.83.01
#
DISCID=0f0c9614
DTITLE=Various Artist - The Brunswick Years - Volume One  [CD1)
DYEAR=1995
DGENRE=Oldies
TTITLE0=Jackie Wilson - Lonely Teardrops
TTITLE1=Jackie Wilson - Doggin' Around
TTITLE2=Jackie Wilson and LaVern Baker - Think Twice
TTITLE3=Artistics - I'm Gonna Miss You
TTITLE4=Artistics - Girl I Need You
TTITLE5=Bobby Reed - You Are
TTITLE6=Young-Holt Unlimited - Wack Wack
TTITLE7=Young-Holt Unlimited - Give It Up
TTITLE8=Gene Chandler - Good Times
TTITLE9=Gene Chandler - The Girl Don't Care
TTITLE10=Little Richard - Try Some Of Mine
TTITLE11=Jackie Wilson - (Your Love Keeps Lifting Me) Higher And Higher
TTITLE12=Jackie Wilson - My Heart Is Calling
TTITLE13=Jackie Wilson - The Who Who Song
TTITLE14=Barbara Acklin - Love Makes A Woman
TTITLE15=Herb Johnson and The Impacts - I'm So Glad
TTITLE16=Billy Butler - Burning Touch Of Love
TTITLE17=Billy Butler - Love Come On Up
TTITLE18=Gene Chandler and Barbara Acklin - From The Teacher To The Preacher
TTITLE19=Jackie Wilson - I Get The Sweetest Feeling
EXTD=
EXTT0=
EXTT1=
EXTT2=
EXTT3=
EXTT4=
EXTT5=
EXTT6=
EXTT7=
EXTT8=
EXTT9=
EXTT10=
EXTT11=
EXTT12=
EXTT13=
EXTT14=
EXTT15=
EXTT16=
EXTT17=
EXTT18=
EXTT19=
PLAYORDER=
